<svg width="24" height="25" viewBox="0 0 24 25" fill="none" xmlns="http://www.w3.org/2000/svg">
<path d="M19.0126 5.51073C18.1006 4.5895 17.0143 3.85909 15.817 3.36209C14.6198 2.86509 13.3356 2.61145 12.0393 2.61597C6.60785 2.61597 2.18114 7.04267 2.18114 12.4741C2.18114 14.2149 2.63874 15.906 3.49423 17.3982L2.10156 22.5113L7.32408 21.1385C8.76649 21.9244 10.388 22.3422 12.0393 22.3422C17.4707 22.3422 21.8974 17.9155 21.8974 12.484C21.8974 9.84791 20.8728 7.37094 19.0126 5.51073ZM12.0393 20.6709C10.567 20.6709 9.1246 20.273 7.86125 19.527L7.56282 19.3479L4.45916 20.1636L5.28481 17.1395L5.08586 16.8312C4.26791 15.525 3.83359 14.0152 3.83245 12.4741C3.83245 7.95785 7.51308 4.27722 12.0293 4.27722C14.2178 4.27722 16.277 5.13272 17.8189 6.68455C18.5823 7.44452 19.1873 8.34846 19.5989 9.34398C20.0104 10.3395 20.2202 11.4068 20.2162 12.484C20.2361 17.0003 16.5555 20.6709 12.0393 20.6709ZM16.5356 14.5432C16.2869 14.4238 15.0733 13.827 14.8545 13.7374C14.6257 13.6579 14.4665 13.6181 14.2974 13.8568C14.1283 14.1055 13.6607 14.6626 13.5215 14.8217C13.3822 14.9908 13.233 15.0107 12.9843 14.8814C12.7356 14.762 11.9398 14.4935 11.0047 13.6579C10.2686 13.0013 9.78115 12.1956 9.63193 11.9469C9.49267 11.6982 9.61204 11.5688 9.74136 11.4395C9.85078 11.3301 9.99005 11.151 10.1094 11.0118C10.2288 10.8725 10.2785 10.7631 10.3581 10.6039C10.4377 10.4348 10.3979 10.2956 10.3382 10.1762C10.2785 10.0568 9.78115 8.84319 9.5822 8.34581C9.38324 7.86832 9.17434 7.92801 9.02513 7.91806H8.54764C8.37853 7.91806 8.11989 7.97775 7.89109 8.22644C7.67225 8.47513 7.0356 9.07199 7.0356 10.2856C7.0356 11.4992 7.92094 12.673 8.04031 12.8322C8.15968 13.0013 9.78115 15.4882 12.2482 16.5526C12.8351 16.8113 13.2927 16.9605 13.6508 17.0699C14.2377 17.2589 14.7749 17.2291 15.2026 17.1694C15.6801 17.0997 16.6649 16.5725 16.8639 15.9956C17.0728 15.4186 17.0728 14.9312 17.0031 14.8217C16.9335 14.7123 16.7843 14.6626 16.5356 14.5432Z" fill="#7B7A79"/>
</svg>
