<svg width="24" height="25" viewBox="0 0 24 25" fill="none" xmlns="http://www.w3.org/2000/svg">
<path d="M7.82139 2.61591H16.1774C19.3607 2.61591 21.9471 5.20229 21.9471 8.38554V16.7416C21.9471 18.2718 21.3392 19.7393 20.2572 20.8213C19.1752 21.9033 17.7076 22.5112 16.1774 22.5112H7.82139C4.63815 22.5112 2.05176 19.9248 2.05176 16.7416V8.38554C2.05176 6.85534 2.65963 5.38781 3.74165 4.30579C4.82366 3.22378 6.29119 2.61591 7.82139 2.61591ZM7.62244 4.60544C6.67266 4.60544 5.76178 4.98273 5.09018 5.65433C4.41859 6.32593 4.04129 7.23681 4.04129 8.18659V16.9405C4.04129 18.9201 5.64286 20.5217 7.62244 20.5217H16.3764C17.3262 20.5217 18.237 20.1444 18.9086 19.4728C19.5802 18.8012 19.9575 17.8903 19.9575 16.9405V8.18659C19.9575 6.20701 18.356 4.60544 16.3764 4.60544H7.62244ZM17.2219 6.09758C17.5517 6.09758 17.868 6.22859 18.1012 6.46178C18.3344 6.69498 18.4654 7.01125 18.4654 7.34104C18.4654 7.67082 18.3344 7.9871 18.1012 8.2203C17.868 8.45349 17.5517 8.5845 17.2219 8.5845C16.8921 8.5845 16.5759 8.45349 16.3427 8.2203C16.1095 7.9871 15.9785 7.67082 15.9785 7.34104C15.9785 7.01125 16.1095 6.69498 16.3427 6.46178C16.5759 6.22859 16.8921 6.09758 17.2219 6.09758ZM11.9994 7.58973C13.3185 7.58973 14.5837 8.11376 15.5164 9.04653C16.4492 9.9793 16.9732 11.2444 16.9732 12.5636C16.9732 13.8827 16.4492 15.1478 15.5164 16.0806C14.5837 17.0134 13.3185 17.5374 11.9994 17.5374C10.6803 17.5374 9.41516 17.0134 8.48238 16.0806C7.54961 15.1478 7.02558 13.8827 7.02558 12.5636C7.02558 11.2444 7.54961 9.9793 8.48238 9.04653C9.41516 8.11376 10.6803 7.58973 11.9994 7.58973ZM11.9994 9.57926C11.2079 9.57926 10.4489 9.89368 9.88919 10.4533C9.32953 11.013 9.01511 11.7721 9.01511 12.5636C9.01511 13.355 9.32953 14.1141 9.88919 14.6738C10.4489 15.2334 11.2079 15.5479 11.9994 15.5479C12.7909 15.5479 13.55 15.2334 14.1096 14.6738C14.6693 14.1141 14.9837 13.355 14.9837 12.5636C14.9837 11.7721 14.6693 11.013 14.1096 10.4533C13.55 9.89368 12.7909 9.57926 11.9994 9.57926Z" fill="#7B7A79"/>
</svg>
