<svg width="24" height="25" viewBox="0 0 24 25" fill="none" xmlns="http://www.w3.org/2000/svg">
<g clip-path="url(#clip0_6_20638)">
<path fill-rule="evenodd" clip-rule="evenodd" d="M19.7351 5.03305C19.9809 4.92958 20.25 4.8939 20.5143 4.92971C20.7786 4.96552 21.0284 5.07151 21.2379 5.23666C21.4473 5.40181 21.6086 5.62007 21.7051 5.86873C21.8015 6.11739 21.8296 6.38736 21.7863 6.65054L19.5301 20.3355C19.3113 21.6556 17.8629 22.4126 16.6523 21.7551C15.6396 21.2049 14.1355 20.3574 12.7827 19.4731C12.1062 19.0304 10.0341 17.6128 10.2888 16.6042C10.5076 15.7417 13.9893 12.5008 15.9788 10.5739C16.7597 9.81687 16.4036 9.38017 15.4815 10.0765C13.1915 11.8054 9.51485 14.4346 8.29925 15.1747C7.22689 15.8272 6.66784 15.9387 5.99935 15.8272C4.77977 15.6243 3.64872 15.31 2.72558 14.927C1.47815 14.4097 1.53883 12.6947 2.72459 12.1954L19.7351 5.03305Z" stroke="#7B7A79" stroke-width="1.96228"/>
</g>
<defs>
<clipPath id="clip0_6_20638">
<rect width="23.8744" height="23.8744" fill="white" transform="translate(0.0634766 0.625732)"/>
</clipPath>
</defs>
</svg>
